# WorldTech low-poly block, generated by art/blockgen.py
mtllib armor_block.mtl
o armor_block
v -0.48000 -0.38000 -0.38000
v -0.48000 -0.38000 0.38000
v -0.48000 0.38000 0.38000
v -0.48000 0.38000 -0.38000
v 0.48000 0.38000 -0.38000
v 0.48000 0.38000 0.38000
v 0.48000 -0.38000 0.38000
v 0.48000 -0.38000 -0.38000
v -0.38000 -0.48000 -0.38000
v 0.38000 -0.48000 -0.38000
v 0.38000 -0.48000 0.38000
v -0.38000 -0.48000 0.38000
v -0.38000 0.48000 0.38000
v 0.38000 0.48000 0.38000
v 0.38000 0.48000 -0.38000
v -0.38000 0.48000 -0.38000
v -0.38000 -0.38000 -0.48000
v -0.38000 0.38000 -0.48000
v 0.38000 0.38000 -0.48000
v 0.38000 -0.38000 -0.48000
v 0.38000 -0.38000 0.48000
v 0.38000 0.38000 0.48000
v -0.38000 0.38000 0.48000
v -0.38000 -0.38000 0.48000
v -0.48000 -0.38000 -0.38000
v -0.38000 -0.48000 -0.38000
v -0.38000 -0.48000 0.38000
v -0.48000 -0.38000 0.38000
v -0.48000 0.38000 0.38000
v -0.38000 0.48000 0.38000
v -0.38000 0.48000 -0.38000
v -0.48000 0.38000 -0.38000
v 0.48000 -0.38000 0.38000
v 0.38000 -0.48000 0.38000
v 0.38000 -0.48000 -0.38000
v 0.48000 -0.38000 -0.38000
v 0.48000 0.38000 -0.38000
v 0.38000 0.48000 -0.38000
v 0.38000 0.48000 0.38000
v 0.48000 0.38000 0.38000
v -0.48000 0.38000 -0.38000
v -0.38000 0.38000 -0.48000
v -0.38000 -0.38000 -0.48000
v -0.48000 -0.38000 -0.38000
v -0.48000 -0.38000 0.38000
v -0.38000 -0.38000 0.48000
v -0.38000 0.38000 0.48000
v -0.48000 0.38000 0.38000
v 0.48000 -0.38000 -0.38000
v 0.38000 -0.38000 -0.48000
v 0.38000 0.38000 -0.48000
v 0.48000 0.38000 -0.38000
v 0.48000 0.38000 0.38000
v 0.38000 0.38000 0.48000
v 0.38000 -0.38000 0.48000
v 0.48000 -0.38000 0.38000
v -0.38000 -0.48000 -0.38000
v -0.38000 -0.38000 -0.48000
v 0.38000 -0.38000 -0.48000
v 0.38000 -0.48000 -0.38000
v 0.38000 -0.48000 0.38000
v 0.38000 -0.38000 0.48000
v -0.38000 -0.38000 0.48000
v -0.38000 -0.48000 0.38000
v 0.38000 0.48000 -0.38000
v 0.38000 0.38000 -0.48000
v -0.38000 0.38000 -0.48000
v -0.38000 0.48000 -0.38000
v -0.38000 0.48000 0.38000
v -0.38000 0.38000 0.48000
v 0.38000 0.38000 0.48000
v 0.38000 0.48000 0.38000
v -0.38000 -0.38000 -0.48000
v -0.38000 -0.48000 -0.38000
v -0.48000 -0.38000 -0.38000
v -0.48000 -0.38000 0.38000
v -0.38000 -0.48000 0.38000
v -0.38000 -0.38000 0.48000
v -0.48000 0.38000 -0.38000
v -0.38000 0.48000 -0.38000
v -0.38000 0.38000 -0.48000
v -0.38000 0.38000 0.48000
v -0.38000 0.48000 0.38000
v -0.48000 0.38000 0.38000
v 0.48000 -0.38000 -0.38000
v 0.38000 -0.48000 -0.38000
v 0.38000 -0.38000 -0.48000
v 0.38000 -0.38000 0.48000
v 0.38000 -0.48000 0.38000
v 0.48000 -0.38000 0.38000
v 0.38000 0.38000 -0.48000
v 0.38000 0.48000 -0.38000
v 0.48000 0.38000 -0.38000
v 0.48000 0.38000 0.38000
v 0.38000 0.48000 0.38000
v 0.38000 0.38000 0.48000
v -0.50000 0.00000 0.00000
v -0.50000 0.11667 -0.11667
v -0.50000 0.00000 -0.07500
v -0.48000 0.11667 -0.11667
v -0.48000 0.00000 -0.07500
v -0.50000 0.00000 -0.07500
v -0.50000 0.11667 -0.11667
v -0.50000 0.00000 0.00000
v -0.50000 0.00000 -0.07500
v -0.50000 -0.11667 -0.11667
v -0.48000 0.00000 -0.07500
v -0.48000 -0.11667 -0.11667
v -0.50000 -0.11667 -0.11667
v -0.50000 0.00000 -0.07500
v -0.50000 0.00000 0.00000
v -0.50000 -0.11667 -0.11667
v -0.50000 -0.07500 -0.00000
v -0.48000 -0.11667 -0.11667
v -0.48000 -0.07500 -0.00000
v -0.50000 -0.07500 -0.00000
v -0.50000 -0.11667 -0.11667
v -0.50000 0.00000 0.00000
v -0.50000 -0.07500 -0.00000
v -0.50000 -0.11667 0.11667
v -0.48000 -0.07500 -0.00000
v -0.48000 -0.11667 0.11667
v -0.50000 -0.11667 0.11667
v -0.50000 -0.07500 -0.00000
v -0.50000 0.00000 0.00000
v -0.50000 -0.11667 0.11667
v -0.50000 -0.00000 0.07500
v -0.48000 -0.11667 0.11667
v -0.48000 -0.00000 0.07500
v -0.50000 -0.00000 0.07500
v -0.50000 -0.11667 0.11667
v -0.50000 0.00000 0.00000
v -0.50000 -0.00000 0.07500
v -0.50000 0.11667 0.11667
v -0.48000 -0.00000 0.07500
v -0.48000 0.11667 0.11667
v -0.50000 0.11667 0.11667
v -0.50000 -0.00000 0.07500
v -0.50000 0.00000 0.00000
v -0.50000 0.11667 0.11667
v -0.50000 0.07500 0.00000
v -0.48000 0.11667 0.11667
v -0.48000 0.07500 0.00000
v -0.50000 0.07500 0.00000
v -0.50000 0.11667 0.11667
v -0.50000 0.00000 0.00000
v -0.50000 0.07500 0.00000
v -0.50000 0.11667 -0.11667
v -0.48000 0.07500 0.00000
v -0.48000 0.11667 -0.11667
v -0.50000 0.11667 -0.11667
v -0.50000 0.07500 0.00000
v 0.50000 0.00000 0.00000
v 0.50000 0.11667 0.11667
v 0.50000 0.00000 0.07500
v 0.48000 0.11667 0.11667
v 0.48000 0.00000 0.07500
v 0.50000 0.00000 0.07500
v 0.50000 0.11667 0.11667
v 0.50000 0.00000 0.00000
v 0.50000 0.00000 0.07500
v 0.50000 -0.11667 0.11667
v 0.48000 0.00000 0.07500
v 0.48000 -0.11667 0.11667
v 0.50000 -0.11667 0.11667
v 0.50000 0.00000 0.07500
v 0.50000 0.00000 0.00000
v 0.50000 -0.11667 0.11667
v 0.50000 -0.07500 0.00000
v 0.48000 -0.11667 0.11667
v 0.48000 -0.07500 0.00000
v 0.50000 -0.07500 0.00000
v 0.50000 -0.11667 0.11667
v 0.50000 0.00000 0.00000
v 0.50000 -0.07500 0.00000
v 0.50000 -0.11667 -0.11667
v 0.48000 -0.07500 0.00000
v 0.48000 -0.11667 -0.11667
v 0.50000 -0.11667 -0.11667
v 0.50000 -0.07500 0.00000
v 0.50000 0.00000 0.00000
v 0.50000 -0.11667 -0.11667
v 0.50000 -0.00000 -0.07500
v 0.48000 -0.11667 -0.11667
v 0.48000 -0.00000 -0.07500
v 0.50000 -0.00000 -0.07500
v 0.50000 -0.11667 -0.11667
v 0.50000 0.00000 0.00000
v 0.50000 -0.00000 -0.07500
v 0.50000 0.11667 -0.11667
v 0.48000 -0.00000 -0.07500
v 0.48000 0.11667 -0.11667
v 0.50000 0.11667 -0.11667
v 0.50000 -0.00000 -0.07500
v 0.50000 0.00000 0.00000
v 0.50000 0.11667 -0.11667
v 0.50000 0.07500 -0.00000
v 0.48000 0.11667 -0.11667
v 0.48000 0.07500 -0.00000
v 0.50000 0.07500 -0.00000
v 0.50000 0.11667 -0.11667
v 0.50000 0.00000 0.00000
v 0.50000 0.07500 -0.00000
v 0.50000 0.11667 0.11667
v 0.48000 0.07500 -0.00000
v 0.48000 0.11667 0.11667
v 0.50000 0.11667 0.11667
v 0.50000 0.07500 -0.00000
v 0.00000 -0.50000 0.00000
v -0.11667 -0.50000 0.11667
v -0.07500 -0.50000 0.00000
v -0.11667 -0.48000 0.11667
v -0.07500 -0.48000 0.00000
v -0.07500 -0.50000 0.00000
v -0.11667 -0.50000 0.11667
v 0.00000 -0.50000 0.00000
v -0.07500 -0.50000 0.00000
v -0.11667 -0.50000 -0.11667
v -0.07500 -0.48000 0.00000
v -0.11667 -0.48000 -0.11667
v -0.11667 -0.50000 -0.11667
v -0.07500 -0.50000 0.00000
v 0.00000 -0.50000 0.00000
v -0.11667 -0.50000 -0.11667
v -0.00000 -0.50000 -0.07500
v -0.11667 -0.48000 -0.11667
v -0.00000 -0.48000 -0.07500
v -0.00000 -0.50000 -0.07500
v -0.11667 -0.50000 -0.11667
v 0.00000 -0.50000 0.00000
v -0.00000 -0.50000 -0.07500
v 0.11667 -0.50000 -0.11667
v -0.00000 -0.48000 -0.07500
v 0.11667 -0.48000 -0.11667
v 0.11667 -0.50000 -0.11667
v -0.00000 -0.50000 -0.07500
v 0.00000 -0.50000 0.00000
v 0.11667 -0.50000 -0.11667
v 0.07500 -0.50000 -0.00000
v 0.11667 -0.48000 -0.11667
v 0.07500 -0.48000 -0.00000
v 0.07500 -0.50000 -0.00000
v 0.11667 -0.50000 -0.11667
v 0.00000 -0.50000 0.00000
v 0.07500 -0.50000 -0.00000
v 0.11667 -0.50000 0.11667
v 0.07500 -0.48000 -0.00000
v 0.11667 -0.48000 0.11667
v 0.11667 -0.50000 0.11667
v 0.07500 -0.50000 -0.00000
v 0.00000 -0.50000 0.00000
v 0.11667 -0.50000 0.11667
v 0.00000 -0.50000 0.07500
v 0.11667 -0.48000 0.11667
v 0.00000 -0.48000 0.07500
v 0.00000 -0.50000 0.07500
v 0.11667 -0.50000 0.11667
v 0.00000 -0.50000 0.00000
v 0.00000 -0.50000 0.07500
v -0.11667 -0.50000 0.11667
v 0.00000 -0.48000 0.07500
v -0.11667 -0.48000 0.11667
v -0.11667 -0.50000 0.11667
v 0.00000 -0.50000 0.07500
v 0.00000 0.50000 0.00000
v 0.11667 0.50000 0.11667
v 0.07500 0.50000 0.00000
v 0.11667 0.48000 0.11667
v 0.07500 0.48000 0.00000
v 0.07500 0.50000 0.00000
v 0.11667 0.50000 0.11667
v 0.00000 0.50000 0.00000
v 0.07500 0.50000 0.00000
v 0.11667 0.50000 -0.11667
v 0.07500 0.48000 0.00000
v 0.11667 0.48000 -0.11667
v 0.11667 0.50000 -0.11667
v 0.07500 0.50000 0.00000
v 0.00000 0.50000 0.00000
v 0.11667 0.50000 -0.11667
v 0.00000 0.50000 -0.07500
v 0.11667 0.48000 -0.11667
v 0.00000 0.48000 -0.07500
v 0.00000 0.50000 -0.07500
v 0.11667 0.50000 -0.11667
v 0.00000 0.50000 0.00000
v 0.00000 0.50000 -0.07500
v -0.11667 0.50000 -0.11667
v 0.00000 0.48000 -0.07500
v -0.11667 0.48000 -0.11667
v -0.11667 0.50000 -0.11667
v 0.00000 0.50000 -0.07500
v 0.00000 0.50000 0.00000
v -0.11667 0.50000 -0.11667
v -0.07500 0.50000 -0.00000
v -0.11667 0.48000 -0.11667
v -0.07500 0.48000 -0.00000
v -0.07500 0.50000 -0.00000
v -0.11667 0.50000 -0.11667
v 0.00000 0.50000 0.00000
v -0.07500 0.50000 -0.00000
v -0.11667 0.50000 0.11667
v -0.07500 0.48000 -0.00000
v -0.11667 0.48000 0.11667
v -0.11667 0.50000 0.11667
v -0.07500 0.50000 -0.00000
v 0.00000 0.50000 0.00000
v -0.11667 0.50000 0.11667
v -0.00000 0.50000 0.07500
v -0.11667 0.48000 0.11667
v -0.00000 0.48000 0.07500
v -0.00000 0.50000 0.07500
v -0.11667 0.50000 0.11667
v 0.00000 0.50000 0.00000
v -0.00000 0.50000 0.07500
v 0.11667 0.50000 0.11667
v -0.00000 0.48000 0.07500
v 0.11667 0.48000 0.11667
v 0.11667 0.50000 0.11667
v -0.00000 0.50000 0.07500
v 0.00000 0.00000 -0.50000
v 0.11667 -0.11667 -0.50000
v 0.00000 -0.07500 -0.50000
v 0.11667 -0.11667 -0.48000
v 0.00000 -0.07500 -0.48000
v 0.00000 -0.07500 -0.50000
v 0.11667 -0.11667 -0.50000
v 0.00000 0.00000 -0.50000
v 0.00000 -0.07500 -0.50000
v -0.11667 -0.11667 -0.50000
v 0.00000 -0.07500 -0.48000
v -0.11667 -0.11667 -0.48000
v -0.11667 -0.11667 -0.50000
v 0.00000 -0.07500 -0.50000
v 0.00000 0.00000 -0.50000
v -0.11667 -0.11667 -0.50000
v -0.07500 -0.00000 -0.50000
v -0.11667 -0.11667 -0.48000
v -0.07500 -0.00000 -0.48000
v -0.07500 -0.00000 -0.50000
v -0.11667 -0.11667 -0.50000
v 0.00000 0.00000 -0.50000
v -0.07500 -0.00000 -0.50000
v -0.11667 0.11667 -0.50000
v -0.07500 -0.00000 -0.48000
v -0.11667 0.11667 -0.48000
v -0.11667 0.11667 -0.50000
v -0.07500 -0.00000 -0.50000
v 0.00000 0.00000 -0.50000
v -0.11667 0.11667 -0.50000
v -0.00000 0.07500 -0.50000
v -0.11667 0.11667 -0.48000
v -0.00000 0.07500 -0.48000
v -0.00000 0.07500 -0.50000
v -0.11667 0.11667 -0.50000
v 0.00000 0.00000 -0.50000
v -0.00000 0.07500 -0.50000
v 0.11667 0.11667 -0.50000
v -0.00000 0.07500 -0.48000
v 0.11667 0.11667 -0.48000
v 0.11667 0.11667 -0.50000
v -0.00000 0.07500 -0.50000
v 0.00000 0.00000 -0.50000
v 0.11667 0.11667 -0.50000
v 0.07500 0.00000 -0.50000
v 0.11667 0.11667 -0.48000
v 0.07500 0.00000 -0.48000
v 0.07500 0.00000 -0.50000
v 0.11667 0.11667 -0.50000
v 0.00000 0.00000 -0.50000
v 0.07500 0.00000 -0.50000
v 0.11667 -0.11667 -0.50000
v 0.07500 0.00000 -0.48000
v 0.11667 -0.11667 -0.48000
v 0.11667 -0.11667 -0.50000
v 0.07500 0.00000 -0.50000
v 0.00000 0.00000 0.50000
v 0.11667 0.11667 0.50000
v 0.00000 0.07500 0.50000
v 0.11667 0.11667 0.48000
v 0.00000 0.07500 0.48000
v 0.00000 0.07500 0.50000
v 0.11667 0.11667 0.50000
v 0.00000 0.00000 0.50000
v 0.00000 0.07500 0.50000
v -0.11667 0.11667 0.50000
v 0.00000 0.07500 0.48000
v -0.11667 0.11667 0.48000
v -0.11667 0.11667 0.50000
v 0.00000 0.07500 0.50000
v 0.00000 0.00000 0.50000
v -0.11667 0.11667 0.50000
v -0.07500 0.00000 0.50000
v -0.11667 0.11667 0.48000
v -0.07500 0.00000 0.48000
v -0.07500 0.00000 0.50000
v -0.11667 0.11667 0.50000
v 0.00000 0.00000 0.50000
v -0.07500 0.00000 0.50000
v -0.11667 -0.11667 0.50000
v -0.07500 0.00000 0.48000
v -0.11667 -0.11667 0.48000
v -0.11667 -0.11667 0.50000
v -0.07500 0.00000 0.50000
v 0.00000 0.00000 0.50000
v -0.11667 -0.11667 0.50000
v -0.00000 -0.07500 0.50000
v -0.11667 -0.11667 0.48000
v -0.00000 -0.07500 0.48000
v -0.00000 -0.07500 0.50000
v -0.11667 -0.11667 0.50000
v 0.00000 0.00000 0.50000
v -0.00000 -0.07500 0.50000
v 0.11667 -0.11667 0.50000
v -0.00000 -0.07500 0.48000
v 0.11667 -0.11667 0.48000
v 0.11667 -0.11667 0.50000
v -0.00000 -0.07500 0.50000
v 0.00000 0.00000 0.50000
v 0.11667 -0.11667 0.50000
v 0.07500 -0.00000 0.50000
v 0.11667 -0.11667 0.48000
v 0.07500 -0.00000 0.48000
v 0.07500 -0.00000 0.50000
v 0.11667 -0.11667 0.50000
v 0.00000 0.00000 0.50000
v 0.07500 -0.00000 0.50000
v 0.11667 0.11667 0.50000
v 0.07500 -0.00000 0.48000
v 0.11667 0.11667 0.48000
v 0.11667 0.11667 0.50000
v 0.07500 -0.00000 0.50000
vt 0.052331 0.552331
vt 0.447669 0.552331
vt 0.447669 0.947669
vt 0.052331 0.947669
vt 0.447669 0.947669
vt 0.052331 0.947669
vt 0.052331 0.552331
vt 0.447669 0.552331
vt 0.052331 0.052331
vt 0.447669 0.052331
vt 0.447669 0.447669
vt 0.052331 0.447669
vt 0.552331 0.552331
vt 0.947669 0.552331
vt 0.947669 0.947669
vt 0.552331 0.947669
vt 0.447669 0.552331
vt 0.447669 0.947669
vt 0.052331 0.947669
vt 0.052331 0.552331
vt 0.447669 0.552331
vt 0.447669 0.947669
vt 0.052331 0.947669
vt 0.052331 0.552331
vt 0.052331 0.552331
vt 0.052331 0.500312
vt 0.447669 0.500312
vt 0.447669 0.552331
vt 0.447669 0.947669
vt 0.447669 0.999687
vt 0.052331 0.999687
vt 0.052331 0.947669
vt 0.052331 0.552331
vt 0.052331 0.500312
vt 0.447669 0.500312
vt 0.447669 0.552331
vt 0.447669 0.947669
vt 0.447669 0.999687
vt 0.052331 0.999687
vt 0.052331 0.947669
vt 0.052331 0.947669
vt 0.000313 0.947669
vt 0.000313 0.552331
vt 0.052331 0.552331
vt 0.447669 0.552331
vt 0.499688 0.552331
vt 0.499688 0.947669
vt 0.447669 0.947669
vt 0.447669 0.552331
vt 0.499688 0.552331
vt 0.499688 0.947669
vt 0.447669 0.947669
vt 0.052331 0.947669
vt 0.000313 0.947669
vt 0.000313 0.552331
vt 0.052331 0.552331
vt 0.447669 0.500312
vt 0.447669 0.552331
vt 0.052331 0.552331
vt 0.052331 0.500312
vt 0.447669 0.500312
vt 0.447669 0.552331
vt 0.052331 0.552331
vt 0.052331 0.500312
vt 0.052331 0.999687
vt 0.052331 0.947669
vt 0.447669 0.947669
vt 0.447669 0.999687
vt 0.052331 0.999687
vt 0.052331 0.947669
vt 0.447669 0.947669
vt 0.447669 0.999687
vt 0.000313 0.552331
vt 0.052331 0.500312
vt 0.052331 0.552331
vt 0.447669 0.552331
vt 0.447669 0.500312
vt 0.499688 0.552331
vt 0.052331 0.947669
vt 0.052331 0.999687
vt 0.000313 0.947669
vt 0.499688 0.947669
vt 0.447669 0.999687
vt 0.447669 0.947669
vt 0.447669 0.552331
vt 0.447669 0.500312
vt 0.499688 0.552331
vt 0.000313 0.552331
vt 0.052331 0.500312
vt 0.052331 0.552331
vt 0.499688 0.947669
vt 0.447669 0.999687
vt 0.447669 0.947669
vt 0.052331 0.947669
vt 0.052331 0.999687
vt 0.000313 0.947669
vt 0.750000 0.250000
vt 0.926556 0.426556
vt 0.750000 0.363494
vt 0.500313 0.073444
vt 0.500313 0.250000
vt 0.500313 0.250000
vt 0.500313 0.073444
vt 0.750000 0.250000
vt 0.750000 0.363494
vt 0.573444 0.426556
vt 0.500313 0.250000
vt 0.500313 0.426556
vt 0.500313 0.426556
vt 0.500313 0.250000
vt 0.750000 0.250000
vt 0.573444 0.426556
vt 0.636506 0.250000
vt 0.573444 0.499687
vt 0.750000 0.499687
vt 0.750000 0.499687
vt 0.573444 0.499687
vt 0.750000 0.250000
vt 0.636506 0.250000
vt 0.573444 0.073444
vt 0.750000 0.499687
vt 0.926556 0.499687
vt 0.926556 0.499687
vt 0.750000 0.499687
vt 0.750000 0.250000
vt 0.573444 0.073444
vt 0.750000 0.136506
vt 0.500313 0.073444
vt 0.500313 0.250000
vt 0.500313 0.250000
vt 0.500313 0.073444
vt 0.750000 0.250000
vt 0.750000 0.136506
vt 0.926556 0.073444
vt 0.500313 0.250000
vt 0.500313 0.426556
vt 0.500313 0.426556
vt 0.500313 0.250000
vt 0.750000 0.250000
vt 0.926556 0.073444
vt 0.863494 0.250000
vt 0.926556 0.000312
vt 0.750000 0.000312
vt 0.750000 0.000312
vt 0.926556 0.000312
vt 0.750000 0.250000
vt 0.863494 0.250000
vt 0.926556 0.426556
vt 0.750000 0.000312
vt 0.573444 0.000312
vt 0.573444 0.000312
vt 0.750000 0.000312
vt 0.750000 0.250000
vt 0.926556 0.426556
vt 0.750000 0.363494
vt 0.999688 0.426556
vt 0.999688 0.250000
vt 0.999688 0.250000
vt 0.999688 0.426556
vt 0.750000 0.250000
vt 0.750000 0.363494
vt 0.573444 0.426556
vt 0.999688 0.250000
vt 0.999688 0.073444
vt 0.999688 0.073444
vt 0.999688 0.250000
vt 0.750000 0.250000
vt 0.573444 0.426556
vt 0.636506 0.250000
vt 0.926556 0.000312
vt 0.750000 0.000312
vt 0.750000 0.000312
vt 0.926556 0.000312
vt 0.750000 0.250000
vt 0.636506 0.250000
vt 0.573444 0.073444
vt 0.750000 0.000312
vt 0.573444 0.000312
vt 0.573444 0.000312
vt 0.750000 0.000312
vt 0.750000 0.250000
vt 0.573444 0.073444
vt 0.750000 0.136506
vt 0.999688 0.426556
vt 0.999688 0.250000
vt 0.999688 0.250000
vt 0.999688 0.426556
vt 0.750000 0.250000
vt 0.750000 0.136506
vt 0.926556 0.073444
vt 0.999688 0.250000
vt 0.999688 0.073444
vt 0.999688 0.073444
vt 0.999688 0.250000
vt 0.750000 0.250000
vt 0.926556 0.073444
vt 0.863494 0.250000
vt 0.573444 0.499687
vt 0.750000 0.499687
vt 0.750000 0.499687
vt 0.573444 0.499687
vt 0.750000 0.250000
vt 0.863494 0.250000
vt 0.926556 0.426556
vt 0.750000 0.499687
vt 0.926556 0.499687
vt 0.926556 0.499687
vt 0.750000 0.499687
vt 0.750000 0.250000
vt 0.926556 0.426556
vt 0.750000 0.363494
vt 0.500313 0.073444
vt 0.500313 0.250000
vt 0.500313 0.250000
vt 0.500313 0.073444
vt 0.750000 0.250000
vt 0.750000 0.363494
vt 0.573444 0.426556
vt 0.500313 0.250000
vt 0.500313 0.426556
vt 0.500313 0.426556
vt 0.500313 0.250000
vt 0.750000 0.250000
vt 0.573444 0.426556
vt 0.636506 0.250000
vt 0.573444 0.499687
vt 0.750000 0.499687
vt 0.750000 0.499687
vt 0.573444 0.499687
vt 0.750000 0.250000
vt 0.636506 0.250000
vt 0.573444 0.073444
vt 0.750000 0.499687
vt 0.926556 0.499687
vt 0.926556 0.499687
vt 0.750000 0.499687
vt 0.750000 0.250000
vt 0.573444 0.073444
vt 0.750000 0.136506
vt 0.500313 0.073444
vt 0.500313 0.250000
vt 0.500313 0.250000
vt 0.500313 0.073444
vt 0.750000 0.250000
vt 0.750000 0.136506
vt 0.926556 0.073444
vt 0.500313 0.250000
vt 0.500313 0.426556
vt 0.500313 0.426556
vt 0.500313 0.250000
vt 0.750000 0.250000
vt 0.926556 0.073444
vt 0.863494 0.250000
vt 0.926556 0.000312
vt 0.750000 0.000312
vt 0.750000 0.000312
vt 0.926556 0.000312
vt 0.750000 0.250000
vt 0.863494 0.250000
vt 0.926556 0.426556
vt 0.750000 0.000312
vt 0.573444 0.000312
vt 0.573444 0.000312
vt 0.750000 0.000312
vt 0.750000 0.250000
vt 0.926556 0.426556
vt 0.750000 0.363494
vt 0.999688 0.426556
vt 0.999688 0.250000
vt 0.999688 0.250000
vt 0.999688 0.426556
vt 0.750000 0.250000
vt 0.750000 0.363494
vt 0.573444 0.426556
vt 0.999688 0.250000
vt 0.999688 0.073444
vt 0.999688 0.073444
vt 0.999688 0.250000
vt 0.750000 0.250000
vt 0.573444 0.426556
vt 0.636506 0.250000
vt 0.926556 0.000312
vt 0.750000 0.000312
vt 0.750000 0.000312
vt 0.926556 0.000312
vt 0.750000 0.250000
vt 0.636506 0.250000
vt 0.573444 0.073444
vt 0.750000 0.000312
vt 0.573444 0.000312
vt 0.573444 0.000312
vt 0.750000 0.000312
vt 0.750000 0.250000
vt 0.573444 0.073444
vt 0.750000 0.136506
vt 0.999688 0.426556
vt 0.999688 0.250000
vt 0.999688 0.250000
vt 0.999688 0.426556
vt 0.750000 0.250000
vt 0.750000 0.136506
vt 0.926556 0.073444
vt 0.999688 0.250000
vt 0.999688 0.073444
vt 0.999688 0.073444
vt 0.999688 0.250000
vt 0.750000 0.250000
vt 0.926556 0.073444
vt 0.863494 0.250000
vt 0.573444 0.499687
vt 0.750000 0.499687
vt 0.750000 0.499687
vt 0.573444 0.499687
vt 0.750000 0.250000
vt 0.863494 0.250000
vt 0.926556 0.426556
vt 0.750000 0.499687
vt 0.926556 0.499687
vt 0.926556 0.499687
vt 0.750000 0.499687
vt 0.750000 0.250000
vt 0.926556 0.426556
vt 0.750000 0.363494
vt 0.500313 0.073444
vt 0.500313 0.250000
vt 0.500313 0.250000
vt 0.500313 0.073444
vt 0.750000 0.250000
vt 0.750000 0.363494
vt 0.573444 0.426556
vt 0.500313 0.250000
vt 0.500313 0.426556
vt 0.500313 0.426556
vt 0.500313 0.250000
vt 0.750000 0.250000
vt 0.573444 0.426556
vt 0.636506 0.250000
vt 0.573444 0.499687
vt 0.750000 0.499687
vt 0.750000 0.499687
vt 0.573444 0.499687
vt 0.750000 0.250000
vt 0.636506 0.250000
vt 0.573444 0.073444
vt 0.750000 0.499687
vt 0.926556 0.499687
vt 0.926556 0.499687
vt 0.750000 0.499687
vt 0.750000 0.250000
vt 0.573444 0.073444
vt 0.750000 0.136506
vt 0.500313 0.073444
vt 0.500313 0.250000
vt 0.500313 0.250000
vt 0.500313 0.073444
vt 0.750000 0.250000
vt 0.750000 0.136506
vt 0.926556 0.073444
vt 0.500313 0.250000
vt 0.500313 0.426556
vt 0.500313 0.426556
vt 0.500313 0.250000
vt 0.750000 0.250000
vt 0.926556 0.073444
vt 0.863494 0.250000
vt 0.926556 0.000312
vt 0.750000 0.000312
vt 0.750000 0.000312
vt 0.926556 0.000312
vt 0.750000 0.250000
vt 0.863494 0.250000
vt 0.926556 0.426556
vt 0.750000 0.000312
vt 0.573444 0.000312
vt 0.573444 0.000312
vt 0.750000 0.000312
vt 0.750000 0.250000
vt 0.926556 0.426556
vt 0.750000 0.363494
vt 0.999688 0.426556
vt 0.999688 0.250000
vt 0.999688 0.250000
vt 0.999688 0.426556
vt 0.750000 0.250000
vt 0.750000 0.363494
vt 0.573444 0.426556
vt 0.999688 0.250000
vt 0.999688 0.073444
vt 0.999688 0.073444
vt 0.999688 0.250000
vt 0.750000 0.250000
vt 0.573444 0.426556
vt 0.636506 0.250000
vt 0.926556 0.000312
vt 0.750000 0.000312
vt 0.750000 0.000312
vt 0.926556 0.000312
vt 0.750000 0.250000
vt 0.636506 0.250000
vt 0.573444 0.073444
vt 0.750000 0.000312
vt 0.573444 0.000312
vt 0.573444 0.000312
vt 0.750000 0.000312
vt 0.750000 0.250000
vt 0.573444 0.073444
vt 0.750000 0.136506
vt 0.999688 0.426556
vt 0.999688 0.250000
vt 0.999688 0.250000
vt 0.999688 0.426556
vt 0.750000 0.250000
vt 0.750000 0.136506
vt 0.926556 0.073444
vt 0.999688 0.250000
vt 0.999688 0.073444
vt 0.999688 0.073444
vt 0.999688 0.250000
vt 0.750000 0.250000
vt 0.926556 0.073444
vt 0.863494 0.250000
vt 0.573444 0.499687
vt 0.750000 0.499687
vt 0.750000 0.499687
vt 0.573444 0.499687
vt 0.750000 0.250000
vt 0.863494 0.250000
vt 0.926556 0.426556
vt 0.750000 0.499687
vt 0.926556 0.499687
vt 0.926556 0.499687
vt 0.750000 0.499687
vn -1.00000 0.00000 0.00000
vn 1.00000 0.00000 0.00000
vn 0.00000 -1.00000 0.00000
vn 0.00000 1.00000 0.00000
vn 0.00000 0.00000 -1.00000
vn 0.00000 0.00000 1.00000
vn -0.70711 -0.70711 0.00000
vn -0.70711 0.70711 0.00000
vn 0.70711 -0.70711 0.00000
vn 0.70711 0.70711 0.00000
vn -0.70711 0.00000 -0.70711
vn -0.70711 0.00000 0.70711
vn 0.70711 0.00000 -0.70711
vn 0.70711 0.00000 0.70711
vn 0.00000 -0.70711 -0.70711
vn 0.00000 -0.70711 0.70711
vn 0.00000 0.70711 -0.70711
vn 0.00000 0.70711 0.70711
vn -0.57735 -0.57735 -0.57735
vn -0.57735 -0.57735 0.57735
vn -0.57735 0.57735 -0.57735
vn -0.57735 0.57735 0.57735
vn 0.57735 -0.57735 -0.57735
vn 0.57735 -0.57735 0.57735
vn 0.57735 0.57735 -0.57735
vn 0.57735 0.57735 0.57735
vn -1.00000 0.00000 0.00000
vn 0.00000 -0.33636 -0.94173
vn -1.00000 0.00000 0.00000
vn 0.00000 0.33636 -0.94173
vn -1.00000 -0.00000 0.00000
vn 0.00000 -0.94173 0.33636
vn -1.00000 0.00000 0.00000
vn 0.00000 -0.94173 -0.33636
vn -1.00000 0.00000 0.00000
vn 0.00000 0.33636 0.94173
vn -1.00000 0.00000 0.00000
vn 0.00000 -0.33636 0.94173
vn -1.00000 -0.00000 0.00000
vn 0.00000 0.94173 -0.33636
vn -1.00000 0.00000 0.00000
vn 0.00000 0.94173 0.33636
vn 1.00000 0.00000 0.00000
vn 0.00000 -0.33636 0.94173
vn 1.00000 0.00000 0.00000
vn 0.00000 0.33636 0.94173
vn 1.00000 -0.00000 0.00000
vn 0.00000 -0.94173 -0.33636
vn 1.00000 0.00000 0.00000
vn 0.00000 -0.94173 0.33636
vn 1.00000 0.00000 0.00000
vn 0.00000 0.33636 -0.94173
vn 1.00000 0.00000 0.00000
vn 0.00000 -0.33636 -0.94173
vn 1.00000 -0.00000 0.00000
vn 0.00000 0.94173 0.33636
vn 1.00000 0.00000 0.00000
vn 0.00000 0.94173 -0.33636
vn 0.00000 -1.00000 0.00000
vn -0.94173 0.00000 -0.33636
vn 0.00000 -1.00000 0.00000
vn -0.94173 0.00000 0.33636
vn 0.00000 -1.00000 -0.00000
vn 0.33636 0.00000 -0.94173
vn 0.00000 -1.00000 0.00000
vn -0.33636 0.00000 -0.94173
vn 0.00000 -1.00000 0.00000
vn 0.94173 0.00000 0.33636
vn 0.00000 -1.00000 0.00000
vn 0.94173 0.00000 -0.33636
vn 0.00000 -1.00000 -0.00000
vn -0.33636 0.00000 0.94173
vn 0.00000 -1.00000 0.00000
vn 0.33636 0.00000 0.94173
vn 0.00000 1.00000 0.00000
vn 0.94173 0.00000 -0.33636
vn 0.00000 1.00000 0.00000
vn 0.94173 0.00000 0.33636
vn 0.00000 1.00000 -0.00000
vn -0.33636 0.00000 -0.94173
vn 0.00000 1.00000 0.00000
vn 0.33636 0.00000 -0.94173
vn 0.00000 1.00000 0.00000
vn -0.94173 0.00000 0.33636
vn 0.00000 1.00000 0.00000
vn -0.94173 0.00000 -0.33636
vn 0.00000 1.00000 -0.00000
vn 0.33636 0.00000 0.94173
vn 0.00000 1.00000 0.00000
vn -0.33636 0.00000 0.94173
vn 0.00000 0.00000 -1.00000
vn -0.33636 -0.94173 0.00000
vn 0.00000 0.00000 -1.00000
vn 0.33636 -0.94173 0.00000
vn -0.00000 0.00000 -1.00000
vn -0.94173 0.33636 0.00000
vn 0.00000 0.00000 -1.00000
vn -0.94173 -0.33636 0.00000
vn 0.00000 0.00000 -1.00000
vn 0.33636 0.94173 0.00000
vn 0.00000 0.00000 -1.00000
vn -0.33636 0.94173 0.00000
vn -0.00000 0.00000 -1.00000
vn 0.94173 -0.33636 0.00000
vn 0.00000 0.00000 -1.00000
vn 0.94173 0.33636 0.00000
vn 0.00000 0.00000 1.00000
vn -0.33636 0.94173 0.00000
vn 0.00000 0.00000 1.00000
vn 0.33636 0.94173 0.00000
vn -0.00000 0.00000 1.00000
vn -0.94173 -0.33636 0.00000
vn 0.00000 0.00000 1.00000
vn -0.94173 0.33636 0.00000
vn 0.00000 0.00000 1.00000
vn 0.33636 -0.94173 0.00000
vn 0.00000 0.00000 1.00000
vn -0.33636 -0.94173 0.00000
vn -0.00000 0.00000 1.00000
vn 0.94173 0.33636 0.00000
vn 0.00000 0.00000 1.00000
vn 0.94173 -0.33636 0.00000
usemtl block
f 1/1/1 2/2/1 3/3/1
f 1/1/1 3/3/1 4/4/1
f 5/5/2 6/6/2 7/7/2
f 5/5/2 7/7/2 8/8/2
f 9/9/3 10/10/3 11/11/3
f 9/9/3 11/11/3 12/12/3
f 13/13/4 14/14/4 15/15/4
f 13/13/4 15/15/4 16/16/4
f 17/17/5 18/18/5 19/19/5
f 17/17/5 19/19/5 20/20/5
f 21/21/6 22/22/6 23/23/6
f 21/21/6 23/23/6 24/24/6
f 25/25/7 26/26/7 27/27/7
f 25/25/7 27/27/7 28/28/7
f 29/29/8 30/30/8 31/31/8
f 29/29/8 31/31/8 32/32/8
f 33/33/9 34/34/9 35/35/9
f 33/33/9 35/35/9 36/36/9
f 37/37/10 38/38/10 39/39/10
f 37/37/10 39/39/10 40/40/10
f 41/41/11 42/42/11 43/43/11
f 41/41/11 43/43/11 44/44/11
f 45/45/12 46/46/12 47/47/12
f 45/45/12 47/47/12 48/48/12
f 49/49/13 50/50/13 51/51/13
f 49/49/13 51/51/13 52/52/13
f 53/53/14 54/54/14 55/55/14
f 53/53/14 55/55/14 56/56/14
f 57/57/15 58/58/15 59/59/15
f 57/57/15 59/59/15 60/60/15
f 61/61/16 62/62/16 63/63/16
f 61/61/16 63/63/16 64/64/16
f 65/65/17 66/66/17 67/67/17
f 65/65/17 67/67/17 68/68/17
f 69/69/18 70/70/18 71/71/18
f 69/69/18 71/71/18 72/72/18
f 73/73/19 74/74/19 75/75/19
f 76/76/20 77/77/20 78/78/20
f 79/79/21 80/80/21 81/81/21
f 82/82/22 83/83/22 84/84/22
f 85/85/23 86/86/23 87/87/23
f 88/88/24 89/89/24 90/90/24
f 91/91/25 92/92/25 93/93/25
f 94/94/26 95/95/26 96/96/26
f 97/97/27 98/98/27 99/99/27
f 100/100/28 101/101/28 102/102/28
f 100/100/28 102/102/28 103/103/28
f 104/104/29 105/105/29 106/106/29
f 107/107/30 108/108/30 109/109/30
f 107/107/30 109/109/30 110/110/30
f 111/111/31 112/112/31 113/113/31
f 114/114/32 115/115/32 116/116/32
f 114/114/32 116/116/32 117/117/32
f 118/118/33 119/119/33 120/120/33
f 121/121/34 122/122/34 123/123/34
f 121/121/34 123/123/34 124/124/34
f 125/125/35 126/126/35 127/127/35
f 128/128/36 129/129/36 130/130/36
f 128/128/36 130/130/36 131/131/36
f 132/132/37 133/133/37 134/134/37
f 135/135/38 136/136/38 137/137/38
f 135/135/38 137/137/38 138/138/38
f 139/139/39 140/140/39 141/141/39
f 142/142/40 143/143/40 144/144/40
f 142/142/40 144/144/40 145/145/40
f 146/146/41 147/147/41 148/148/41
f 149/149/42 150/150/42 151/151/42
f 149/149/42 151/151/42 152/152/42
f 153/153/43 154/154/43 155/155/43
f 156/156/44 157/157/44 158/158/44
f 156/156/44 158/158/44 159/159/44
f 160/160/45 161/161/45 162/162/45
f 163/163/46 164/164/46 165/165/46
f 163/163/46 165/165/46 166/166/46
f 167/167/47 168/168/47 169/169/47
f 170/170/48 171/171/48 172/172/48
f 170/170/48 172/172/48 173/173/48
f 174/174/49 175/175/49 176/176/49
f 177/177/50 178/178/50 179/179/50
f 177/177/50 179/179/50 180/180/50
f 181/181/51 182/182/51 183/183/51
f 184/184/52 185/185/52 186/186/52
f 184/184/52 186/186/52 187/187/52
f 188/188/53 189/189/53 190/190/53
f 191/191/54 192/192/54 193/193/54
f 191/191/54 193/193/54 194/194/54
f 195/195/55 196/196/55 197/197/55
f 198/198/56 199/199/56 200/200/56
f 198/198/56 200/200/56 201/201/56
f 202/202/57 203/203/57 204/204/57
f 205/205/58 206/206/58 207/207/58
f 205/205/58 207/207/58 208/208/58
f 209/209/59 210/210/59 211/211/59
f 212/212/60 213/213/60 214/214/60
f 212/212/60 214/214/60 215/215/60
f 216/216/61 217/217/61 218/218/61
f 219/219/62 220/220/62 221/221/62
f 219/219/62 221/221/62 222/222/62
f 223/223/63 224/224/63 225/225/63
f 226/226/64 227/227/64 228/228/64
f 226/226/64 228/228/64 229/229/64
f 230/230/65 231/231/65 232/232/65
f 233/233/66 234/234/66 235/235/66
f 233/233/66 235/235/66 236/236/66
f 237/237/67 238/238/67 239/239/67
f 240/240/68 241/241/68 242/242/68
f 240/240/68 242/242/68 243/243/68
f 244/244/69 245/245/69 246/246/69
f 247/247/70 248/248/70 249/249/70
f 247/247/70 249/249/70 250/250/70
f 251/251/71 252/252/71 253/253/71
f 254/254/72 255/255/72 256/256/72
f 254/254/72 256/256/72 257/257/72
f 258/258/73 259/259/73 260/260/73
f 261/261/74 262/262/74 263/263/74
f 261/261/74 263/263/74 264/264/74
f 265/265/75 266/266/75 267/267/75
f 268/268/76 269/269/76 270/270/76
f 268/268/76 270/270/76 271/271/76
f 272/272/77 273/273/77 274/274/77
f 275/275/78 276/276/78 277/277/78
f 275/275/78 277/277/78 278/278/78
f 279/279/79 280/280/79 281/281/79
f 282/282/80 283/283/80 284/284/80
f 282/282/80 284/284/80 285/285/80
f 286/286/81 287/287/81 288/288/81
f 289/289/82 290/290/82 291/291/82
f 289/289/82 291/291/82 292/292/82
f 293/293/83 294/294/83 295/295/83
f 296/296/84 297/297/84 298/298/84
f 296/296/84 298/298/84 299/299/84
f 300/300/85 301/301/85 302/302/85
f 303/303/86 304/304/86 305/305/86
f 303/303/86 305/305/86 306/306/86
f 307/307/87 308/308/87 309/309/87
f 310/310/88 311/311/88 312/312/88
f 310/310/88 312/312/88 313/313/88
f 314/314/89 315/315/89 316/316/89
f 317/317/90 318/318/90 319/319/90
f 317/317/90 319/319/90 320/320/90
f 321/321/91 322/322/91 323/323/91
f 324/324/92 325/325/92 326/326/92
f 324/324/92 326/326/92 327/327/92
f 328/328/93 329/329/93 330/330/93
f 331/331/94 332/332/94 333/333/94
f 331/331/94 333/333/94 334/334/94
f 335/335/95 336/336/95 337/337/95
f 338/338/96 339/339/96 340/340/96
f 338/338/96 340/340/96 341/341/96
f 342/342/97 343/343/97 344/344/97
f 345/345/98 346/346/98 347/347/98
f 345/345/98 347/347/98 348/348/98
f 349/349/99 350/350/99 351/351/99
f 352/352/100 353/353/100 354/354/100
f 352/352/100 354/354/100 355/355/100
f 356/356/101 357/357/101 358/358/101
f 359/359/102 360/360/102 361/361/102
f 359/359/102 361/361/102 362/362/102
f 363/363/103 364/364/103 365/365/103
f 366/366/104 367/367/104 368/368/104
f 366/366/104 368/368/104 369/369/104
f 370/370/105 371/371/105 372/372/105
f 373/373/106 374/374/106 375/375/106
f 373/373/106 375/375/106 376/376/106
f 377/377/107 378/378/107 379/379/107
f 380/380/108 381/381/108 382/382/108
f 380/380/108 382/382/108 383/383/108
f 384/384/109 385/385/109 386/386/109
f 387/387/110 388/388/110 389/389/110
f 387/387/110 389/389/110 390/390/110
f 391/391/111 392/392/111 393/393/111
f 394/394/112 395/395/112 396/396/112
f 394/394/112 396/396/112 397/397/112
f 398/398/113 399/399/113 400/400/113
f 401/401/114 402/402/114 403/403/114
f 401/401/114 403/403/114 404/404/114
f 405/405/115 406/406/115 407/407/115
f 408/408/116 409/409/116 410/410/116
f 408/408/116 410/410/116 411/411/116
f 412/412/117 413/413/117 414/414/117
f 415/415/118 416/416/118 417/417/118
f 415/415/118 417/417/118 418/418/118
f 419/419/119 420/420/119 421/421/119
f 422/422/120 423/423/120 424/424/120
f 422/422/120 424/424/120 425/425/120
f 426/426/121 427/427/121 428/428/121
f 429/429/122 430/430/122 431/431/122
f 429/429/122 431/431/122 432/432/122
